<svg width="88" height="58" viewBox="0 0 88 58" fill="none" xmlns="http://www.w3.org/2000/svg">
<path d="M-1.9233e-06 3.8147e-06L88 -3.19052e-08C88 24.3005 68.3005 44 44 44C19.6995 44 -8.61091e-07 24.3005 -1.9233e-06 3.8147e-06Z" fill="#E6F3FF"/>
<path d="M21 44.7709V55.7345C21 56.4222 21.5572 56.9788 22.2442 56.9788H27.3417V43.5266H22.2442C21.5572 43.5266 21 44.0838 21 44.7709Z" fill="url(#paint0_linear_0_1)"/>
<path d="M48.2923 38.2084C48.2923 38.9316 47.7063 39.5177 46.983 39.5177C46.2601 39.5177 45.6741 38.9316 45.6741 38.2084C45.6741 37.4855 46.2601 36.8994 46.983 36.8994C47.7063 36.8994 48.2923 37.4855 48.2923 38.2084Z" fill="url(#paint1_linear_0_1)"/>
<path d="M24.8244 34.8595H30.7031V40.3219C30.6906 40.3261 30.6784 40.33 30.6659 40.3341C31.3155 40.1262 32.0429 40.015 32.8324 40.015C33.7662 40.1435 37.8453 39.3472 39.6327 42.3026C39.9287 42.7919 40.427 43.0838 40.9647 43.0838H45.1098C47.6785 43.0838 49.5315 45.6331 48.683 48.0752C51.3535 47.7797 52.7695 46.739 55.3605 45.6681V34.8595H61.2386C62.3979 34.8595 62.9254 33.4089 62.0387 32.6632L55.3605 27.0489V18.3113C55.3605 17.6237 54.803 17.0671 54.1163 17.0671H49.271C48.5834 17.0671 48.0268 17.6237 48.0268 18.3113V20.8847L43.832 17.358C43.3699 16.9693 42.6938 16.9693 42.2311 17.358L24.024 32.6632C23.1389 33.407 23.6648 34.8595 24.8244 34.8595ZM50.7809 38.2077C50.7822 40.3002 49.0884 42.0045 46.9841 42.0045C44.8913 42.0055 43.1872 40.312 43.1872 38.2077C43.1872 36.1137 44.8904 34.4109 46.9841 34.4109C49.0848 34.4109 50.7822 36.1127 50.7809 38.2077ZM46.116 29.4118C46.6021 28.9257 47.3901 28.9257 47.8758 29.4118C48.3619 29.8979 48.3619 30.6858 47.8758 31.1719L39.947 39.1001C39.4609 39.5862 38.6746 39.5869 38.1878 39.1001C37.7017 38.615 37.7017 37.827 38.1878 37.3409L46.116 29.4118ZM39.0818 26.5074C41.1804 26.5074 42.8812 28.2082 42.8812 30.3068C42.8812 32.4053 41.1804 34.1062 39.0818 34.1062C36.9833 34.1062 35.2824 32.4053 35.2824 30.3068C35.2824 28.2082 36.9833 26.5074 39.0818 26.5074Z" fill="url(#paint2_linear_0_1)"/>
<path d="M62.1149 45.348L53.0745 49.4303C51.2755 50.2298 49.3728 50.6329 47.4124 50.6329H38.0243C37.3376 50.6329 36.7801 50.0763 36.7801 49.389C36.7801 48.7019 37.3376 48.1447 38.0243 48.1447H45.1097C45.8205 48.1447 46.3963 47.5657 46.3963 46.8582C46.3963 46.149 45.8189 45.5719 45.1097 45.5719H40.9646C39.5486 45.5719 38.2547 44.8314 37.5042 43.5904C36.6593 42.1952 34.3166 42.5541 32.8323 42.5031C31.9296 42.5031 29.8298 42.7236 29.8298 44.7709V56.9804H46.6767C49.1383 56.9804 51.5633 56.3251 53.6907 55.086L61.2648 50.6736C63.1877 49.5533 63.5732 46.9758 62.1149 45.348Z" fill="url(#paint3_linear_0_1)"/>
<path d="M38.9088 31.6016C39.7647 31.7096 40.4847 30.9899 40.3767 30.1337C40.3034 29.5505 39.8323 29.0798 39.2491 29.0061C38.3932 28.8985 37.6735 29.6182 37.7812 30.474C37.8546 31.0572 38.3256 31.5283 38.9088 31.6016Z" fill="url(#paint4_linear_0_1)"/>
<defs>
<linearGradient id="paint0_linear_0_1" x1="24.1709" y1="43.5266" x2="24.1709" y2="56.9788" gradientUnits="userSpaceOnUse">
<stop stop-color="#3087FF"/>
<stop offset="1" stop-color="#4073FF"/>
</linearGradient>
<linearGradient id="paint1_linear_0_1" x1="46.9832" y1="36.8994" x2="46.9832" y2="39.5177" gradientUnits="userSpaceOnUse">
<stop stop-color="#3087FF"/>
<stop offset="1" stop-color="#4073FF"/>
</linearGradient>
<linearGradient id="paint2_linear_0_1" x1="43.0317" y1="17.0665" x2="43.0317" y2="48.0752" gradientUnits="userSpaceOnUse">
<stop stop-color="#3087FF"/>
<stop offset="1" stop-color="#4073FF"/>
</linearGradient>
<linearGradient id="paint3_linear_0_1" x1="46.4149" y1="42.4968" x2="46.4149" y2="56.9804" gradientUnits="userSpaceOnUse">
<stop stop-color="#3087FF"/>
<stop offset="1" stop-color="#4073FF"/>
</linearGradient>
<linearGradient id="paint4_linear_0_1" x1="39.079" y1="28.9954" x2="39.079" y2="31.6124" gradientUnits="userSpaceOnUse">
<stop stop-color="#3087FF"/>
<stop offset="1" stop-color="#4073FF"/>
</linearGradient>
</defs>
</svg>
