<svg width="88" height="59" viewBox="0 0 88 59" fill="none" xmlns="http://www.w3.org/2000/svg">
<path d="M-1.9233e-06 3.8147e-06L88 -3.19052e-08C88 24.3005 68.3005 44 44 44C19.6995 44 -8.61091e-07 24.3005 -1.9233e-06 3.8147e-06Z" fill="#E6F3FF"/>
<path d="M44.9924 43.6228H56.9886C57.4385 43.6228 57.7384 43.3229 57.7384 42.8731V36.1252C57.7384 35.6753 57.4385 35.3754 56.9886 35.3754H44.9924C44.5426 35.3754 44.2427 35.6753 44.2427 36.1252V42.8731C44.2426 43.3228 44.5426 43.6228 44.9924 43.6228ZM45.7421 36.8749H56.2389V42.1232H45.7421V36.8749Z" fill="url(#paint0_linear_0_1)"/>
<path d="M24.7488 33.8758H30.7469C31.1968 33.8758 31.4967 33.5759 31.4967 33.126C31.4967 32.6762 31.1968 32.3763 30.7469 32.3763H24.7488C24.2989 32.3763 23.999 32.6762 23.999 33.126C23.999 33.5759 24.2989 33.8758 24.7488 33.8758Z" fill="url(#paint1_linear_0_1)"/>
<path d="M33.7461 33.8758H39.7442C40.1941 33.8758 40.494 33.5759 40.494 33.126C40.494 32.6762 40.1941 32.3763 39.7442 32.3763H33.7461C33.2962 32.3763 32.9963 32.6762 32.9963 33.126C32.9963 33.5759 33.2962 33.8758 33.7461 33.8758Z" fill="url(#paint2_linear_0_1)"/>
<path d="M24.7488 36.8749H34.4957C34.9455 36.8749 35.2454 36.575 35.2454 36.1252C35.2454 35.6753 34.9455 35.3754 34.4957 35.3754H24.7488C24.2989 35.3754 23.999 35.6753 23.999 36.1252C23.999 36.575 24.2989 36.8749 24.7488 36.8749Z" fill="url(#paint3_linear_0_1)"/>
<path d="M39.7442 35.3754H37.4949C37.045 35.3754 36.7451 35.6752 36.7451 36.1251C36.7451 36.575 37.045 36.8748 37.4949 36.8748H39.7442C40.194 36.8748 40.4939 36.575 40.4939 36.1251C40.4939 35.6752 40.194 35.3754 39.7442 35.3754Z" fill="url(#paint4_linear_0_1)"/>
<path d="M65.3112 26.0783C64.7864 25.4035 64.1116 25.0286 63.2868 24.9536L61.4874 24.7356V22.6293V21.1298C61.4874 19.4804 60.1378 18.1308 58.4883 18.1308H23.999C22.3496 18.1307 21 19.4803 21 21.1298V22.6294V28.6275V45.1224C21 46.4766 21.91 47.628 23.1485 47.9971C23.1107 49.5138 24.2583 50.8305 25.7986 50.9705L60.4377 54.8693C60.5127 54.8693 60.6627 54.8693 60.7376 54.8693C62.2372 54.8693 63.5868 53.7446 63.7366 52.3201L65.9859 28.2526C66.0609 27.5028 65.836 26.678 65.3112 26.0783ZM22.4996 23.3791H59.9879V25.3285V27.8777H22.4996V23.3791ZM23.999 19.6303H58.4882C59.313 19.6303 59.9878 20.3051 59.9878 21.1298V21.8796H22.4996V21.1298C22.4996 20.3051 23.1744 19.6303 23.999 19.6303ZM22.4996 45.1223V29.3772H59.9879V45.1223C59.9879 45.947 59.3131 46.6218 58.4883 46.6218H24.0741H23.9991C23.1744 46.6218 22.4996 45.947 22.4996 45.1223ZM64.4864 27.9527L62.2371 52.0201C62.1621 52.8449 61.4123 53.4447 60.5876 53.3697L26.0234 49.471C25.2737 49.396 24.7488 48.7962 24.6738 48.1214H58.4882C60.1377 48.1214 61.4873 46.7718 61.4873 45.1224V28.6275V26.1532L63.2118 26.3032C63.5867 26.3032 63.9615 26.5281 64.1864 26.828C64.4114 27.1279 64.5614 27.5778 64.4864 27.9527Z" fill="url(#paint5_linear_0_1)"/>
<defs>
<linearGradient id="paint0_linear_0_1" x1="50.9905" y1="35.3754" x2="50.9905" y2="43.6228" gradientUnits="userSpaceOnUse">
<stop stop-color="#4DACFF"/>
<stop offset="1" stop-color="#2264FF"/>
</linearGradient>
<linearGradient id="paint1_linear_0_1" x1="27.7478" y1="32.3763" x2="27.7478" y2="33.8758" gradientUnits="userSpaceOnUse">
<stop stop-color="#4DACFF"/>
<stop offset="1" stop-color="#2264FF"/>
</linearGradient>
<linearGradient id="paint2_linear_0_1" x1="36.7452" y1="32.3763" x2="36.7452" y2="33.8758" gradientUnits="userSpaceOnUse">
<stop stop-color="#4DACFF"/>
<stop offset="1" stop-color="#2264FF"/>
</linearGradient>
<linearGradient id="paint3_linear_0_1" x1="29.6222" y1="35.3754" x2="29.6222" y2="36.8749" gradientUnits="userSpaceOnUse">
<stop stop-color="#4DACFF"/>
<stop offset="1" stop-color="#2264FF"/>
</linearGradient>
<linearGradient id="paint4_linear_0_1" x1="38.6195" y1="35.3754" x2="38.6195" y2="36.8748" gradientUnits="userSpaceOnUse">
<stop stop-color="#4DACFF"/>
<stop offset="1" stop-color="#2264FF"/>
</linearGradient>
<linearGradient id="paint5_linear_0_1" x1="43.5" y1="18.1308" x2="43.5" y2="54.8693" gradientUnits="userSpaceOnUse">
<stop stop-color="#4DACFF"/>
<stop offset="1" stop-color="#2264FF"/>
</linearGradient>
</defs>
</svg>
