<svg width="88" height="59" viewBox="0 0 88 59" fill="none" xmlns="http://www.w3.org/2000/svg">
<path d="M-1.9233e-06 3.8147e-06L88 -3.19052e-08C88 24.3005 68.3005 44 44 44C19.6995 44 -8.61091e-07 24.3005 -1.9233e-06 3.8147e-06Z" fill="#E6F3FF"/>
<path d="M36.8058 53.5487H42.1704V42.9408H39.7602C38.8447 42.9408 38.0551 42.3278 37.828 41.441C37.6226 40.6388 37.9303 39.8127 38.5849 39.3367V35.3645L40.8169 35.0203V38.0932L43.0776 36.8545V34.6669L45.5926 34.2784V35.4766L47.3718 34.5018V7.27139L36.8058 11.7881V53.5487ZM45.5927 31.555L43.0777 32.0284V27.4492L45.5927 26.8286V31.555ZM45.5927 24.1053L43.0777 24.8108V20.228L45.5927 19.3752V24.1053ZM45.5927 12.2217V16.6556L43.0777 17.5931L43.077 13.3011L45.5927 12.2217ZM38.585 15.2259L40.8183 14.2686L40.8176 18.4366L38.5849 19.2646L38.585 15.2259ZM38.585 21.7516L40.8177 20.9954V25.4493L38.585 26.0747V21.7517V21.7516ZM38.585 28.5547L40.8177 28.0044V32.4583L38.585 32.8778V28.5548V28.5547ZM59.8011 12.0536V33.9187L55.6608 31.6503C54.6825 31.1143 53.5545 31.1143 52.5762 31.6503L48.614 33.8212V7.27139L59.8011 12.0536ZM25.1635 24.4528V53.5487H35.5636V20.007L25.1635 24.4528ZM29.6063 46.4584H27.7907V42.9749L29.6067 42.7975L29.6063 46.4584ZM29.6073 40.7146L27.7907 40.9633V37.4666L29.6073 37.0934V40.7146ZM29.6073 35.0149L27.7907 35.4617V31.9648L29.6073 31.3937V35.0149ZM29.6079 29.3131L27.7908 29.9556V26.6897L29.6085 25.9241L29.6079 29.3131ZM33.5577 46.4584H31.4655V42.615L33.5577 42.4105V46.4584ZM33.5577 40.1693L31.4655 40.4576V36.7127L33.5577 36.2809V40.1693ZM33.5577 34.0396L31.4655 34.555V30.8078L33.5577 30.1467V34.0396ZM33.5577 27.9076L31.4649 28.6525V25.1434L33.5577 24.2565V27.9076ZM68.8385 40.2867L55.0642 32.7397C54.4577 32.4074 53.7798 32.4074 53.1732 32.7397L39.3988 40.2867C39.0935 40.4539 38.9451 40.7957 39.0316 41.133C39.1179 41.4704 39.4122 41.6987 39.7604 41.6987H43.4128V53.5487H46.2053V46.1568H45.4296C45.0865 46.1568 44.8085 45.8788 44.8085 45.5357C44.8085 45.1927 45.0865 44.9146 45.4296 44.9146H52.3232C52.6662 44.9146 52.9443 45.1927 52.9443 45.5357C52.9443 45.8788 52.6661 46.1568 52.3232 46.1568H51.5474V53.5487H64.8248V41.6987H68.477C68.8253 41.6987 69.1195 41.4704 69.2058 41.133C69.2922 40.7957 69.1439 40.4539 68.8385 40.2867ZM52.1742 37.6764C52.1742 36.6025 53.0448 35.732 54.1187 35.732C55.1925 35.732 56.0631 36.6025 56.0631 37.6764C56.0631 38.7503 55.1925 39.6209 54.1187 39.6209C53.0448 39.6209 52.1742 38.7503 52.1742 37.6764ZM58.0515 44.7025H55.3131V41.6988H58.0515V44.7025ZM62.032 44.7025H59.2937V41.6988H62.032V44.7025ZM21.77 56.9516V55.5678C21.77 55.1405 22.1197 54.7909 22.547 54.7909H67.5198C67.9471 54.7909 68.2968 55.1405 68.2968 55.5678V56.9516C68.2968 57.379 67.9471 57.7286 67.5198 57.7286H22.547C22.1197 57.7286 21.77 57.379 21.77 56.9516Z" fill="url(#paint0_linear_0_1)"/>
<defs>
<linearGradient id="paint0_linear_0_1" x1="45.5" y1="57.7286" x2="45.5" y2="7.27139" gradientUnits="userSpaceOnUse">
<stop stop-color="#1751FF"/>
<stop offset="1" stop-color="#5CC5FF"/>
</linearGradient>
</defs>
</svg>
