<svg width="88" height="54" viewBox="0 0 88 54" fill="none" xmlns="http://www.w3.org/2000/svg">
<path d="M-1.9233e-06 3.8147e-06L88 -3.19052e-08C88 24.3005 68.3005 44 44 44C19.6995 44 -8.61091e-07 24.3005 -1.9233e-06 3.8147e-06Z" fill="#E6F3FF"/>
<path d="M60.77 36.7583C60.7272 36.7456 60.6826 36.7404 60.6382 36.7429H54.5907C49.2719 36.9218 49.269 44.9936 54.5908 45.1733H60.6382C60.6826 45.1758 60.7272 45.1706 60.77 45.1579C61.1072 45.1252 61.4204 44.9615 61.6481 44.6991C61.8757 44.4367 62.0013 44.0946 62 43.7401V38.1684C61.9998 37.8152 61.8736 37.4747 61.646 37.2138C61.4185 36.953 61.1061 36.7905 60.77 36.7583ZM55.5718 42.3836C55.214 42.3766 54.8732 42.223 54.6225 41.9557C54.3719 41.6884 54.2314 41.3288 54.2314 40.9542C54.2314 40.5797 54.3719 40.2201 54.6225 39.9528C54.8732 39.6855 55.2141 39.5319 55.5718 39.5249C55.9297 39.5317 56.2707 39.6853 56.5215 39.9526C56.7723 40.2199 56.9128 40.5796 56.9128 40.9543C56.9128 41.329 56.7723 41.6887 56.5215 41.956C56.2707 42.2233 55.9297 42.3768 55.5718 42.3836ZM51.1057 22.6719L53.3681 27.3163H40.2334L49.7879 22.2197C50.124 22.5099 50.5456 22.6697 50.9813 22.6719H51.1057ZM60.6382 46.7061C60.6823 46.7066 60.7263 46.704 60.77 46.6984V47.986C60.77 49.3323 60.2596 50.6235 59.3509 51.5762C58.4421 52.5289 57.2093 53.0651 55.9232 53.0672L35.2621 53.0672C42.7612 46.1255 36.0367 33.191 26.374 36.1068V26.1667C26.3762 25.0502 26.8014 23.9801 27.5563 23.1913C28.3112 22.4025 29.3342 21.9594 30.4008 21.9592H38.8351L35.9651 23.492H30.4009C29.7251 23.4964 29.0784 23.7806 28.602 24.2824C28.1256 24.7843 27.8582 25.463 27.8582 26.1705C27.8582 26.878 28.1255 27.5567 28.6019 28.0586C29.0783 28.5604 29.725 28.8446 30.4008 28.8491H55.9306C57.0638 28.8462 58.1613 29.2644 59.0275 30.0293C59.5714 30.5062 60.0092 31.1017 60.3102 31.7742C60.6112 32.4467 60.7681 33.18 60.77 33.9226V35.2178C60.7263 35.2122 60.6823 35.2096 60.6382 35.2102H54.5908C47.3299 35.4729 47.3155 46.4365 54.5907 46.7061L60.6382 46.7061ZM32.0115 27.3163C37.6391 24.3114 45.3971 20.1885 51.0765 17.1539C51.2369 17.0689 51.4119 17.018 51.5912 17.004C51.7706 16.99 51.9508 17.0132 52.1215 17.0723C52.2923 17.1314 52.4502 17.2252 52.5862 17.3484C52.7222 17.4715 52.8337 17.6216 52.9141 17.79L57.673 27.5768C56.8036 27.3425 55.904 27.2545 55.008 27.3162C54.3971 26.094 52.6719 22.4445 52.0648 21.3001C51.9599 21.1631 51.8133 21.0678 51.6494 21.0301C51.4856 20.9925 51.3143 21.0147 51.1643 21.0931C51.0695 21.1417 50.9606 21.1505 50.8599 21.1177C50.7592 21.0849 50.6742 21.0131 50.6225 20.9169C50.5349 20.7361 50.3825 20.5991 50.1986 20.5359C50.0146 20.4726 49.8142 20.4884 49.6414 20.5797L37.012 27.3163H32.0115ZM29.0097 37.2411C26.8887 37.252 24.8574 38.1388 23.3576 39.7088C21.8577 41.2789 21.0105 43.4051 21.0002 45.6254C20.9577 53.0355 29.7513 56.8183 34.6839 51.5342C39.6684 46.4054 36.0827 37.187 29.0097 37.2411ZM32.9779 46.3918H29.7419V49.7793C29.739 49.9806 29.6606 50.1726 29.5236 50.3139C29.3866 50.4552 29.202 50.5344 29.0097 50.5344C28.8174 50.5344 28.6328 50.4552 28.4958 50.3139C28.3588 50.1726 28.2804 49.9805 28.2776 49.7793V46.3918H25.0342C24.84 46.3918 24.6538 46.3111 24.5165 46.1674C24.3792 46.0236 24.3021 45.8287 24.3021 45.6255C24.3021 45.4222 24.3792 45.2273 24.5165 45.0835C24.6538 44.9398 24.84 44.8591 25.0342 44.8591H28.2776V41.4716C28.2776 41.2683 28.3547 41.0734 28.492 40.9297C28.6293 40.7859 28.8156 40.7052 29.0097 40.7052C29.2039 40.7052 29.3901 40.7859 29.5274 40.9297C29.6647 41.0734 29.7419 41.2683 29.7419 41.4716V44.8591H32.9779C33.1702 44.862 33.3537 44.9441 33.4887 45.0875C33.6236 45.2309 33.6993 45.4241 33.6993 45.6255C33.6993 45.8268 33.6236 46.02 33.4886 46.1634C33.3537 46.3068 33.1702 46.3889 32.9779 46.3918Z" fill="url(#paint0_linear_0_1)"/>
<defs>
<linearGradient id="paint0_linear_0_1" x1="21" y1="35.498" x2="61.9999" y2="35.498" gradientUnits="userSpaceOnUse">
<stop stop-color="#00C0FF"/>
<stop offset="1" stop-color="#5558FF"/>
</linearGradient>
</defs>
</svg>
