<svg width="23" height="17" viewBox="0 0 23 17" fill="none" xmlns="http://www.w3.org/2000/svg">
<path d="M1.41667 17C1.41667 17 0 17 0 15.5833C0 14.1667 1.41667 9.91667 8.5 9.91667C15.5833 9.91667 17 14.1667 17 15.5833C17 17 15.5833 17 15.5833 17H1.41667ZM8.5 8.5C9.62717 8.5 10.7082 8.05223 11.5052 7.2552C12.3022 6.45817 12.75 5.37717 12.75 4.25C12.75 3.12283 12.3022 2.04183 11.5052 1.2448C10.7082 0.447767 9.62717 0 8.5 0C7.37283 0 6.29183 0.447767 5.4948 1.2448C4.69777 2.04183 4.25 3.12283 4.25 4.25C4.25 5.37717 4.69777 6.45817 5.4948 7.2552C6.29183 8.05223 7.37283 8.5 8.5 8.5Z" fill="#F9FCFF"/>
<path fill-rule="evenodd" clip-rule="evenodd" d="M19.5 4C19.6857 4 19.8637 4.07375 19.995 4.20503C20.1263 4.3363 20.2 4.51435 20.2 4.7V6.8H22.3C22.4857 6.8 22.6637 6.87375 22.795 7.00503C22.9263 7.1363 23 7.31435 23 7.5C23 7.68565 22.9263 7.8637 22.795 7.99497C22.6637 8.12625 22.4857 8.2 22.3 8.2H20.2V10.3C20.2 10.4857 20.1263 10.6637 19.995 10.795C19.8637 10.9263 19.6857 11 19.5 11C19.3143 11 19.1363 10.9263 19.005 10.795C18.8737 10.6637 18.8 10.4857 18.8 10.3V8.2H16.7C16.5143 8.2 16.3363 8.12625 16.205 7.99497C16.0737 7.8637 16 7.68565 16 7.5C16 7.31435 16.0737 7.1363 16.205 7.00503C16.3363 6.87375 16.5143 6.8 16.7 6.8H18.8V4.7C18.8 4.51435 18.8737 4.3363 19.005 4.20503C19.1363 4.07375 19.3143 4 19.5 4Z" fill="white"/>
</svg>
